<?xml version="1.0" encoding="UTF-8" standalone="no"?>
<!DOCTYPE svg PUBLIC "-//W3C//DTD SVG 1.1//EN"
 "http://www.w3.org/Graphics/SVG/1.1/DTD/svg11.dtd">
<!-- Generated by graphviz version 2.50.0 (20211204.2007)
 -->
<!-- Pages: 1 -->
<svg width="404pt" height="1196pt"
 viewBox="0.00 0.00 404.04 1196.00" xmlns="http://www.w3.org/2000/svg" xmlns:xlink="http://www.w3.org/1999/xlink">
<g id="graph0" class="graph" transform="scale(1 1) rotate(0) translate(4 1192)">
<polygon fill="white" stroke="transparent" points="-4,4 -4,-1192 400.04,-1192 400.04,4 -4,4"/>
<!-- change_1d12_105 -->
<g id="node1" class="node">
<title>change_1d12_105</title>
<ellipse fill="none" stroke="black" cx="203.64" cy="-954" rx="75.29" ry="18"/>
<text text-anchor="middle" x="203.64" y="-950.3" font-family="Times,serif" font-size="14.00">change_1d12_105</text>
</g>
<!-- change_9654_126721 -->
<g id="node2" class="node">
<title>change_9654_126721</title>
<ellipse fill="none" stroke="black" cx="151.64" cy="-882" rx="88.28" ry="18"/>
<text text-anchor="middle" x="151.64" y="-878.3" font-family="Times,serif" font-size="14.00">change_9654_126721</text>
</g>
<!-- change_1d12_105&#45;&gt;change_9654_126721 -->
<g id="edge1" class="edge">
<title>change_1d12_105&#45;&gt;change_9654_126721</title>
<path fill="none" stroke="black" d="M191.06,-936.05C184.89,-927.75 177.33,-917.58 170.5,-908.38"/>
<polygon fill="black" stroke="black" points="173.25,-906.22 164.48,-900.28 167.63,-910.39 173.25,-906.22"/>
</g>
<!-- change_9654_162512 -->
<g id="node5" class="node">
<title>change_9654_162512</title>
<ellipse fill="none" stroke="black" cx="151.64" cy="-810" rx="88.28" ry="18"/>
<text text-anchor="middle" x="151.64" y="-806.3" font-family="Times,serif" font-size="14.00">change_9654_162512</text>
</g>
<!-- change_9654_126721&#45;&gt;change_9654_162512 -->
<g id="edge12" class="edge">
<title>change_9654_126721&#45;&gt;change_9654_162512</title>
<path fill="none" stroke="black" d="M151.64,-863.7C151.64,-855.98 151.64,-846.71 151.64,-838.11"/>
<polygon fill="black" stroke="black" points="155.14,-838.1 151.64,-828.1 148.14,-838.1 155.14,-838.1"/>
</g>
<!-- change_9654_126720 -->
<g id="node3" class="node">
<title>change_9654_126720</title>
<ellipse fill="none" stroke="black" cx="147.64" cy="-1098" rx="88.28" ry="18"/>
<text text-anchor="middle" x="147.64" y="-1094.3" font-family="Times,serif" font-size="14.00">change_9654_126720</text>
</g>
<!-- change_9654_126720&#45;&gt;change_9654_126721 -->
<g id="edge11" class="edge">
<title>change_9654_126720&#45;&gt;change_9654_126721</title>
<path fill="none" stroke="black" d="M137.95,-1079.92C132.72,-1069.81 126.72,-1056.56 123.64,-1044 112.21,-997.35 106.76,-982.27 119.64,-936 122.31,-926.42 127.23,-916.84 132.43,-908.51"/>
<polygon fill="black" stroke="black" points="135.45,-910.29 138.08,-900.03 129.62,-906.41 135.45,-910.29"/>
</g>
<!-- change_1d12_1 -->
<g id="node4" class="node">
<title>change_1d12_1</title>
<ellipse fill="none" stroke="black" cx="198.64" cy="-1026" rx="66.09" ry="18"/>
<text text-anchor="middle" x="198.64" y="-1022.3" font-family="Times,serif" font-size="14.00">change_1d12_1</text>
</g>
<!-- change_9654_126720&#45;&gt;change_1d12_1 -->
<g id="edge2" class="edge">
<title>change_9654_126720&#45;&gt;change_1d12_1</title>
<path fill="none" stroke="black" d="M159.99,-1080.05C166.13,-1071.63 173.67,-1061.28 180.45,-1051.97"/>
<polygon fill="black" stroke="black" points="183.35,-1053.93 186.41,-1043.79 177.69,-1049.81 183.35,-1053.93"/>
</g>
<!-- change_1d12_1&#45;&gt;change_1d12_105 -->
<g id="edge9" class="edge">
<title>change_1d12_1&#45;&gt;change_1d12_105</title>
<path fill="none" stroke="black" d="M199.88,-1007.7C200.43,-999.98 201.09,-990.71 201.71,-982.11"/>
<polygon fill="black" stroke="black" points="205.2,-982.33 202.42,-972.1 198.22,-981.83 205.2,-982.33"/>
</g>
<!-- change_b31c_1 -->
<g id="node6" class="node">
<title>change_b31c_1</title>
<ellipse fill="none" stroke="black" cx="65.64" cy="-738" rx="65.79" ry="18"/>
<text text-anchor="middle" x="65.64" y="-734.3" font-family="Times,serif" font-size="14.00">change_b31c_1</text>
</g>
<!-- change_9654_162512&#45;&gt;change_b31c_1 -->
<g id="edge3" class="edge">
<title>change_9654_162512&#45;&gt;change_b31c_1</title>
<path fill="none" stroke="black" d="M131.26,-792.41C119.94,-783.19 105.68,-771.59 93.35,-761.55"/>
<polygon fill="black" stroke="black" points="95.55,-758.83 85.58,-755.23 91.13,-764.26 95.55,-758.83"/>
</g>
<!-- change_9654_171710 -->
<g id="node7" class="node">
<title>change_9654_171710</title>
<ellipse fill="none" stroke="black" cx="237.64" cy="-738" rx="88.28" ry="18"/>
<text text-anchor="middle" x="237.64" y="-734.3" font-family="Times,serif" font-size="14.00">change_9654_171710</text>
</g>
<!-- change_9654_162512&#45;&gt;change_9654_171710 -->
<g id="edge13" class="edge">
<title>change_9654_162512&#45;&gt;change_9654_171710</title>
<path fill="none" stroke="black" d="M172.02,-792.41C183.08,-783.41 196.93,-772.14 209.05,-762.27"/>
<polygon fill="black" stroke="black" points="211.57,-764.74 217.11,-755.71 207.15,-759.31 211.57,-764.74"/>
</g>
<!-- change_b31c_516 -->
<g id="node8" class="node">
<title>change_b31c_516</title>
<ellipse fill="none" stroke="black" cx="125.64" cy="-666" rx="74.99" ry="18"/>
<text text-anchor="middle" x="125.64" y="-662.3" font-family="Times,serif" font-size="14.00">change_b31c_516</text>
</g>
<!-- change_b31c_1&#45;&gt;change_b31c_516 -->
<g id="edge19" class="edge">
<title>change_b31c_1&#45;&gt;change_b31c_516</title>
<path fill="none" stroke="black" d="M79.86,-720.41C87.23,-711.82 96.36,-701.16 104.53,-691.63"/>
<polygon fill="black" stroke="black" points="107.26,-693.83 111.11,-683.96 101.94,-689.27 107.26,-693.83"/>
</g>
<!-- change_9654_171710&#45;&gt;change_b31c_516 -->
<g id="edge4" class="edge">
<title>change_9654_171710&#45;&gt;change_b31c_516</title>
<path fill="none" stroke="black" d="M211.67,-720.76C196.4,-711.22 176.91,-699.04 160.34,-688.68"/>
<polygon fill="black" stroke="black" points="161.81,-685.48 151.48,-683.15 158.1,-691.42 161.81,-685.48"/>
</g>
<!-- change_9654_178268 -->
<g id="node14" class="node">
<title>change_9654_178268</title>
<ellipse fill="none" stroke="black" cx="237.64" cy="-522" rx="88.28" ry="18"/>
<text text-anchor="middle" x="237.64" y="-518.3" font-family="Times,serif" font-size="14.00">change_9654_178268</text>
</g>
<!-- change_9654_171710&#45;&gt;change_9654_178268 -->
<g id="edge14" class="edge">
<title>change_9654_171710&#45;&gt;change_9654_178268</title>
<path fill="none" stroke="black" d="M237.64,-719.85C237.64,-682.83 237.64,-595.18 237.64,-550.39"/>
<polygon fill="black" stroke="black" points="241.14,-550.23 237.64,-540.23 234.14,-550.23 241.14,-550.23"/>
</g>
<!-- change_b31c_1986 -->
<g id="node13" class="node">
<title>change_b31c_1986</title>
<ellipse fill="none" stroke="black" cx="125.64" cy="-594" rx="79.09" ry="18"/>
<text text-anchor="middle" x="125.64" y="-590.3" font-family="Times,serif" font-size="14.00">change_b31c_1986</text>
</g>
<!-- change_b31c_516&#45;&gt;change_b31c_1986 -->
<g id="edge20" class="edge">
<title>change_b31c_516&#45;&gt;change_b31c_1986</title>
<path fill="none" stroke="black" d="M125.64,-647.7C125.64,-639.98 125.64,-630.71 125.64,-622.11"/>
<polygon fill="black" stroke="black" points="129.14,-622.1 125.64,-612.1 122.14,-622.1 129.14,-622.1"/>
</g>
<!-- change_9654_213417 -->
<g id="node9" class="node">
<title>change_9654_213417</title>
<ellipse fill="none" stroke="black" cx="237.64" cy="-450" rx="88.28" ry="18"/>
<text text-anchor="middle" x="237.64" y="-446.3" font-family="Times,serif" font-size="14.00">change_9654_213417</text>
</g>
<!-- change_b31c_1987 -->
<g id="node10" class="node">
<title>change_b31c_1987</title>
<ellipse fill="none" stroke="black" cx="125.64" cy="-378" rx="79.09" ry="18"/>
<text text-anchor="middle" x="125.64" y="-374.3" font-family="Times,serif" font-size="14.00">change_b31c_1987</text>
</g>
<!-- change_9654_213417&#45;&gt;change_b31c_1987 -->
<g id="edge5" class="edge">
<title>change_9654_213417&#45;&gt;change_b31c_1987</title>
<path fill="none" stroke="black" d="M211.67,-432.76C196.4,-423.22 176.91,-411.04 160.34,-400.68"/>
<polygon fill="black" stroke="black" points="161.81,-397.48 151.48,-395.15 158.1,-403.42 161.81,-397.48"/>
</g>
<!-- change_9654_213418 -->
<g id="node16" class="node">
<title>change_9654_213418</title>
<ellipse fill="none" stroke="black" cx="237.64" cy="-234" rx="88.28" ry="18"/>
<text text-anchor="middle" x="237.64" y="-230.3" font-family="Times,serif" font-size="14.00">change_9654_213418</text>
</g>
<!-- change_9654_213417&#45;&gt;change_9654_213418 -->
<g id="edge16" class="edge">
<title>change_9654_213417&#45;&gt;change_9654_213418</title>
<path fill="none" stroke="black" d="M237.64,-431.85C237.64,-394.83 237.64,-307.18 237.64,-262.39"/>
<polygon fill="black" stroke="black" points="241.14,-262.23 237.64,-252.23 234.14,-262.23 241.14,-262.23"/>
</g>
<!-- change_b31c_3481 -->
<g id="node15" class="node">
<title>change_b31c_3481</title>
<ellipse fill="none" stroke="black" cx="125.64" cy="-306" rx="79.09" ry="18"/>
<text text-anchor="middle" x="125.64" y="-302.3" font-family="Times,serif" font-size="14.00">change_b31c_3481</text>
</g>
<!-- change_b31c_1987&#45;&gt;change_b31c_3481 -->
<g id="edge22" class="edge">
<title>change_b31c_1987&#45;&gt;change_b31c_3481</title>
<path fill="none" stroke="black" d="M125.64,-359.7C125.64,-351.98 125.64,-342.71 125.64,-334.11"/>
<polygon fill="black" stroke="black" points="129.14,-334.1 125.64,-324.1 122.14,-334.1 129.14,-334.1"/>
</g>
<!-- change_9654_217379 -->
<g id="node11" class="node">
<title>change_9654_217379</title>
<ellipse fill="none" stroke="black" cx="237.64" cy="-162" rx="88.28" ry="18"/>
<text text-anchor="middle" x="237.64" y="-158.3" font-family="Times,serif" font-size="14.00">change_9654_217379</text>
</g>
<!-- change_b31c_3482 -->
<g id="node12" class="node">
<title>change_b31c_3482</title>
<ellipse fill="none" stroke="black" cx="121.64" cy="-90" rx="79.09" ry="18"/>
<text text-anchor="middle" x="121.64" y="-86.3" font-family="Times,serif" font-size="14.00">change_b31c_3482</text>
</g>
<!-- change_9654_217379&#45;&gt;change_b31c_3482 -->
<g id="edge6" class="edge">
<title>change_9654_217379&#45;&gt;change_b31c_3482</title>
<path fill="none" stroke="black" d="M210.74,-144.76C194.78,-135.13 174.36,-122.81 157.1,-112.4"/>
<polygon fill="black" stroke="black" points="158.77,-109.32 148.4,-107.15 155.16,-115.31 158.77,-109.32"/>
</g>
<!-- change_9654_250743 -->
<g id="node18" class="node">
<title>change_9654_250743</title>
<ellipse fill="none" stroke="black" cx="307.64" cy="-90" rx="88.28" ry="18"/>
<text text-anchor="middle" x="307.64" y="-86.3" font-family="Times,serif" font-size="14.00">change_9654_250743</text>
</g>
<!-- change_9654_217379&#45;&gt;change_9654_250743 -->
<g id="edge18" class="edge">
<title>change_9654_217379&#45;&gt;change_9654_250743</title>
<path fill="none" stroke="black" d="M254.59,-144.05C263.27,-135.37 274,-124.64 283.53,-115.11"/>
<polygon fill="black" stroke="black" points="286.26,-117.33 290.86,-107.79 281.31,-112.39 286.26,-117.33"/>
</g>
<!-- change_b31c_8931 -->
<g id="node19" class="node">
<title>change_b31c_8931</title>
<ellipse fill="none" stroke="black" cx="121.64" cy="-18" rx="79.09" ry="18"/>
<text text-anchor="middle" x="121.64" y="-14.3" font-family="Times,serif" font-size="14.00">change_b31c_8931</text>
</g>
<!-- change_b31c_3482&#45;&gt;change_b31c_8931 -->
<g id="edge24" class="edge">
<title>change_b31c_3482&#45;&gt;change_b31c_8931</title>
<path fill="none" stroke="black" d="M121.64,-71.7C121.64,-63.98 121.64,-54.71 121.64,-46.11"/>
<polygon fill="black" stroke="black" points="125.14,-46.1 121.64,-36.1 118.14,-46.1 125.14,-46.1"/>
</g>
<!-- change_b31c_1986&#45;&gt;change_b31c_1987 -->
<g id="edge21" class="edge">
<title>change_b31c_1986&#45;&gt;change_b31c_1987</title>
<path fill="none" stroke="black" d="M125.64,-575.85C125.64,-538.83 125.64,-451.18 125.64,-406.39"/>
<polygon fill="black" stroke="black" points="129.14,-406.23 125.64,-396.23 122.14,-406.23 129.14,-406.23"/>
</g>
<!-- change_b31c_1986&#45;&gt;change_9654_178268 -->
<g id="edge7" class="edge">
<title>change_b31c_1986&#45;&gt;change_9654_178268</title>
<path fill="none" stroke="black" d="M151.34,-576.94C166.6,-567.4 186.15,-555.18 202.78,-544.79"/>
<polygon fill="black" stroke="black" points="205.06,-547.5 211.68,-539.23 201.35,-541.56 205.06,-547.5"/>
</g>
<!-- change_9654_178268&#45;&gt;change_9654_213417 -->
<g id="edge15" class="edge">
<title>change_9654_178268&#45;&gt;change_9654_213417</title>
<path fill="none" stroke="black" d="M237.64,-503.7C237.64,-495.98 237.64,-486.71 237.64,-478.11"/>
<polygon fill="black" stroke="black" points="241.14,-478.1 237.64,-468.1 234.14,-478.1 241.14,-478.1"/>
</g>
<!-- change_b31c_3481&#45;&gt;change_b31c_3482 -->
<g id="edge23" class="edge">
<title>change_b31c_3481&#45;&gt;change_b31c_3482</title>
<path fill="none" stroke="black" d="M125.32,-287.85C124.63,-250.83 122.99,-163.18 122.16,-118.39"/>
<polygon fill="black" stroke="black" points="125.65,-118.17 121.97,-108.23 118.65,-118.3 125.65,-118.17"/>
</g>
<!-- change_b31c_3481&#45;&gt;change_9654_213418 -->
<g id="edge8" class="edge">
<title>change_b31c_3481&#45;&gt;change_9654_213418</title>
<path fill="none" stroke="black" d="M151.34,-288.94C166.6,-279.4 186.15,-267.18 202.78,-256.79"/>
<polygon fill="black" stroke="black" points="205.06,-259.5 211.68,-251.23 201.35,-253.56 205.06,-259.5"/>
</g>
<!-- change_9654_213418&#45;&gt;change_9654_217379 -->
<g id="edge17" class="edge">
<title>change_9654_213418&#45;&gt;change_9654_217379</title>
<path fill="none" stroke="black" d="M237.64,-215.7C237.64,-207.98 237.64,-198.71 237.64,-190.11"/>
<polygon fill="black" stroke="black" points="241.14,-190.1 237.64,-180.1 234.14,-190.1 241.14,-190.1"/>
</g>
<!-- change_9654_1 -->
<g id="node17" class="node">
<title>change_9654_1</title>
<ellipse fill="none" stroke="black" cx="147.64" cy="-1170" rx="66.09" ry="18"/>
<text text-anchor="middle" x="147.64" y="-1166.3" font-family="Times,serif" font-size="14.00">change_9654_1</text>
</g>
<!-- change_9654_1&#45;&gt;change_9654_126720 -->
<g id="edge10" class="edge">
<title>change_9654_1&#45;&gt;change_9654_126720</title>
<path fill="none" stroke="black" d="M147.64,-1151.7C147.64,-1143.98 147.64,-1134.71 147.64,-1126.11"/>
<polygon fill="black" stroke="black" points="151.14,-1126.1 147.64,-1116.1 144.14,-1126.1 151.14,-1126.1"/>
</g>
</g>
</svg>
